<mxfile host="65bd71144e">
    <diagram id="xEAOVTLHd7aebHadBkjL" name="Page-1">
        <mxGraphModel dx="545" dy="475" grid="1" gridSize="10" guides="1" tooltips="1" connect="1" arrows="1" fold="1" page="1" pageScale="1" pageWidth="850" pageHeight="1100" math="0" shadow="0">
            <root>
                <mxCell id="0"/>
                <mxCell id="1" parent="0"/>
                <mxCell id="2" value="&lt;h1&gt;review&lt;/h1&gt;" style="whiteSpace=wrap;html=1;fontFamily=Helvetica;align=center;fontSize=13;labelPosition=center;verticalLabelPosition=top;verticalAlign=bottom;labelBackgroundColor=none;" vertex="1" parent="1">
                    <mxGeometry x="60" y="130" width="150" height="210" as="geometry"/>
                </mxCell>
            </root>
        </mxGraphModel>
    </diagram>
</mxfile>
